<?xml version="1.0" standalone="no"?>
<!DOCTYPE svg PUBLIC "-//W3C//DTD SVG 20010904//EN"
 "http://www.w3.org/TR/2001/REC-SVG-20010904/DTD/svg10.dtd">
<svg version="1.0" xmlns="http://www.w3.org/2000/svg"
 width="700.000000pt" height="700.000000pt" viewBox="0 0 700.000000 700.000000"
 preserveAspectRatio="xMidYMid meet">
<metadata>
Created by potrace 1.11, written by Peter Selinger 2001-2013
</metadata>
<g transform="translate(0.000000,700.000000) scale(0.100000,-0.100000)"
fill="#000000" stroke="none">
<path d="M2 5898 l3 -1103 2293 0 c1374 0 2296 3 2299 9 5 7 8 2087 4 2179 -1
16 -117 17 -2301 17 l-2300 0 2 -1102z"/>
<path d="M4797 6993 c-2 -5 -3 -1578 -3 -3498 l1 -3490 1103 -3 1102 -2 0
3500 0 3500 -1099 0 c-605 0 -1102 -3 -1104 -7z"/>
<path d="M4 4595 c-2 -5 -3 -502 -2 -1104 l3 -1094 1196 0 1195 0 0 -1190 c-1
-654 2 -1193 5 -1198 3 -5 453 -8 1104 -7 l1098 3 0 2293 c0 1261 -3 2295 -7
2299 -11 11 -4588 9 -4592 -2z"/>
<path d="M5 2201 c-3 -2 -5 -499 -5 -1103 l0 -1098 1103 2 1102 3 0 1100 0
1100 -1098 0 c-604 1 -1100 -1 -1102 -4z"/>
</g>
</svg>
